<svg width="64" height="64" viewBox="0 0 64 64" fill="none" xmlns="http://www.w3.org/2000/svg">
  <defs>
    <linearGradient id="bg" x1="8" y1="6" x2="56" y2="58" gradientUnits="userSpaceOnUse">
      <stop stop-color="#10B981"/>
      <stop offset="1" stop-color="#047857"/>
    </linearGradient>
  </defs>

  <rect x="4" y="4" width="56" height="56" rx="16" fill="url(#bg)"/>
  <circle cx="32" cy="34" r="17" fill="#ECFDF5"/>

  <path d="M31.8 16.2C32.2 12.4 35 10.2 38.1 10.4C38 13.4 36.1 16.5 32.6 18L31.8 16.2Z" fill="#A7F3D0"/>
  <path d="M24.6 33.6C24.6 28.8 28.4 25 33.2 25C38 25 41.8 28.8 41.8 33.6C41.8 38.5 38 42.2 33.2 42.2C28.4 42.2 24.6 38.5 24.6 33.6Z" fill="#22C55E"/>
  <path d="M29.4 38.2C26.9 36 26.3 32.4 28 29.6C30.8 31 33.2 33.2 35.2 36.4C33.5 38.3 31.3 39 29.4 38.2Z" fill="#166534" fill-opacity="0.9"/>

  <path d="M19 44C19 49.5 23.5 54 29 54H35" stroke="#D1FAE5" stroke-width="3.5" stroke-linecap="round"/>
  <circle cx="40.5" cy="45.5" r="4.5" stroke="#D1FAE5" stroke-width="3.5"/>
</svg>
